<svg xmlns="http://www.w3.org/2000/svg" viewBox="0 0 308.3 166.5" height="47" width="87" class="undefined"><style>.a{fill:#e00;stroke:#e00;}.b{fill:#e00;stroke-width:1pt;stroke:#e00;}.c{fill:none;stroke-width:5;stroke:#2ca600;}.d{fill:none;stroke-width:3;stroke:#2ca600;}.e{fill:#edff6d;image-rendering:optimizeSpeed;stroke-width:2;stroke:#edff6d;}.f{fill:none;image-rendering:optimizeSpeed;stroke-width:3;stroke:#000;}.g{fill:#ff0e0a;image-rendering:optimizeSpeed;stroke-width:2;stroke:#ff0e0a;}.h{fill:#adadad;image-rendering:optimizeSpeed;stroke-width:2;stroke:#adadad;}.i{fill:#ffb986;image-rendering:optimizeSpeed;stroke-width:2;stroke:#ffb986;}.j{fill:#ff7a3b;image-rendering:optimizeSpeed;stroke-width:2;stroke:#ff7a3b;}.k{fill:#ffdad9;image-rendering:optimizeSpeed;stroke-width:2;stroke:#ffdad9;}.l{fill:#c4e6ff;image-rendering:optimizeSpeed;stroke-width:2;stroke:#c4e6ff;}.m{-inkscape-font-specification:'Roboto Condensed, Normal';font-family:'Roboto Condensed';font-size:40px;image-rendering:optimizeSpeed;letter-spacing:0px;line-height:100%;stroke-width:1px;text-align:start;word-spacing:0px;}</style><defs class="undefined"><marker orient="auto" refY="0" refX="0" class="undefined"><g class="a"><path d="" class="a"/><path d="M0 0-13 4-9 0-13-4 0 0Z" class="a"/><path d="" class="a"/></g></marker><marker refX="0" refY="0" orient="auto" class="undefined"><path d="M0 0 5-5-12.5 0 5 5 0 0Z" class="b"/></marker><pattern patternTransform="translate(120.93708,111.21443)" height="358.3" width="358" patternUnits="userSpaceOnUse" class="undefined"><rect width="248.2" height="248.2" x="129.1" y="-124.4" transform="matrix(0.70595205 0.70825963 -0.70755978 0.7066535 0 0)" class="c"/></pattern><pattern patternTransform="translate(120.93708,111.21443)" height="358.3" width="358" patternUnits="userSpaceOnUse" class="undefined"><rect width="248.2" height="248.2" x="129.1" y="-124.4" transform="matrix(0.70595205 0.70825963 -0.70755978 0.7066535 0 0)" class="c"/></pattern><pattern patternTransform="translate(120.93708,111.21443)" height="358.3" width="358" patternUnits="userSpaceOnUse" class="undefined"><rect width="248.2" height="248.2" x="129.1" y="-124.4" transform="matrix(0.70595205 0.70825963 -0.70755978 0.7066535 0 0)" class="c"/></pattern><pattern patternTransform="translate(120.93708,111.21443)" height="358.3" width="358" patternUnits="userSpaceOnUse" class="undefined"><rect width="248.2" height="248.2" x="129.1" y="-124.4" transform="matrix(0.70595205 0.70825963 -0.70755978 0.7066535 0 0)" class="c"/></pattern><pattern patternTransform="translate(120.93708,111.21443)" height="358.3" width="358" patternUnits="userSpaceOnUse" class="undefined"><rect width="248.2" height="248.2" x="129.1" y="-124.4" transform="matrix(0.70595205 0.70825963 -0.70755978 0.7066535 0 0)" class="c"/></pattern><clipPath clipPathUnits="userSpaceOnUse" class="undefined"><rect y="174.9" x="-193" height="68" width="223.1" class="d"/></clipPath><pattern patternTransform="translate(120.93708,111.21443)" height="358.3" width="358" patternUnits="userSpaceOnUse" class="undefined"><rect width="248.2" height="248.2" x="129.1" y="-124.4" transform="matrix(0.70595205 0.70825963 -0.70755978 0.7066535 0 0)" class="c"/></pattern><clipPath clipPathUnits="userSpaceOnUse" class="undefined"><rect y="174.9" x="-193" height="68" width="223.1" class="d"/></clipPath><pattern patternTransform="translate(120.93708,111.21443)" height="358.3" width="358" patternUnits="userSpaceOnUse" class="undefined"><rect width="248.2" height="248.2" x="129.1" y="-124.4" transform="matrix(0.70595205 0.70825963 -0.70755978 0.7066535 0 0)" class="c"/></pattern><clipPath clipPathUnits="userSpaceOnUse" class="undefined"><rect y="174.9" x="-193" height="68" width="223.1" class="d"/></clipPath><pattern patternTransform="translate(120.93708,111.21443)" height="358.3" width="358" patternUnits="userSpaceOnUse" class="undefined"><rect width="248.2" height="248.2" x="129.1" y="-124.4" transform="matrix(0.70595205 0.70825963 -0.70755978 0.7066535 0 0)" class="c"/></pattern><clipPath clipPathUnits="userSpaceOnUse" class="undefined"><rect y="174.9" x="-193" height="68" width="223.1" class="d"/></clipPath></defs><g transform="translate(0 -885.82677)" class="undefined"><path d="m189.9 913.3c10.3 11.3 15.1 26.5 13 41.7l-44.6-21z" class="e"/><ellipse cx="151.9" cy="948.2" rx="60" ry="60" class="f"/><path d="m155.8 896.4c11 0.9 21.4 5.3 29.8 12.5l-38.2 23.9z" class="g"/><path d="m201 961.9c-3.4 13.9-11.3 24.1-23.8 31.2l-10.6-47.1z" class="h"/><path d="m113.5 913.4c9.1-10 21.7-16 35.1-16.9l-10.6 45.2z" class="i"/><path d="m100.5 953.8c-1.4-12.4 1.8-24.9 8.9-35.1l30 34.6z" class="j"/><path d="m171.2 995.9c-15.6 6.3-33.2 4.6-47.3-4.5l38-34.2z" class="k"/><path d="m118.2 987.3c-8.1-6.9-13.8-16.1-16.5-26.4l46.5-0.7z" class="l"/><text y="1050.3" x="-0.9" class="m"><tspan y="1050.3" x="-0.9" class="undefined">  SOLOVIOVA PHOTO</tspan></text></g></svg>